# xmcd
#
# Track frame offsets:
#	150
#	22038
#	50256
#	69053
#	92037
#	115932
#	137634
#	147036
#	157499
#	173575
#	211680
#	233184
#	244769
#	256051
#	269929
#	282816
#	297961
#	313726
#	333369
#
# Disc length: 4723 seconds
#
# Revision: 0
# Processed by: cddbd v1.4PL0 Copyright (c) Steve Scherf et al.
# Submitted via: audiograbber 1.80.04
#
DISCID=18127113
DTITLE=SOUL Artist - BLAQUESAND  MIX
DYEAR=1900
DGENRE=
TTITLE0=Dells - The Love We Had (Stays On My Mind)
TTITLE1=Collectors' Items  - Stairway To Heaven - The O'Jays
TTITLE2=Dramatics - I Can't Get Over You
TTITLE3=Greatest Hits -  Can't we try - Teddy Pendergrass
TTITLE4=Lakeside - Say Yes
TTITLE5=Legacy's Rhythm and Soul Revue  - Me and Mrs Jones - 
TTITLE6=Legacy's Rhythm and Soul Revue - Ain't No Sunshine - 
TTITLE7=Little Anthony and the Imperials - Hurt So Bad
TTITLE8=Mtume - I'd rather be with you (female vocal from Tawatha Agee) (1)
TTITLE9=Music From The Motion Picture  Harold Melvin and the Blue Notes - I Mis
TTITLE9=s You
TTITLE10=Regina Bell - Alfter the Love has Lost its Shine - All By Myself
TTITLE11=Rose Royce - Golden Touch
TTITLE12=Mel Carter - Hold Me, Thrill Me, Kiss Me  
TTITLE13=Little Anthony - I'm on the Outside 
TTITLE14=The Impression- I'm So Proud 
TTITLE15=Frederick Knight - I've Been Lonely For So Long
TTITLE16=Luther Ingram - (If Loving You Is Wrong) I Don't Want To Be Right
TTITLE17=the stylistics - i found love on a two way street
TTITLE18=Toast To The Other Man - One Way featuring Al Hudson
EXTD=
EXTT0=
EXTT1=
EXTT2=
EXTT3=
EXTT4=
EXTT5=
EXTT6=
EXTT7=
EXTT8=
EXTT9=
EXTT10=
EXTT11=
EXTT12=
EXTT13=
EXTT14=
EXTT15=
EXTT16=
EXTT17=
EXTT18=
PLAYORDER=
